<svg width="70" height="70" viewBox="0 0 152 155" fill="none" xmlns="http://www.w3.org/2000/svg">
	<path d="M39.9091 29.6364C44.0606 29.6667 48.1515 30.4242 52.1818 31.9091C56.2121 33.3939 59.8485 35.8182 63.0909 39.1818C66.3636 42.5455 68.9697 47.0909 70.9091 52.8182C72.8788 58.5151 73.8788 65.6061 73.9091 74.0909C73.9091 82.2424 73.0909 89.5 71.4545 95.8636C69.8182 102.197 67.4697 107.545 64.4091 111.909C61.3788 116.273 57.697 119.591 53.3636 121.864C49.0303 124.136 44.1515 125.273 38.7273 125.273C33.1818 125.273 28.2576 124.182 23.9545 122C19.6515 119.818 16.1515 116.803 13.4545 112.955C10.7576 109.076 9.07576 104.621 8.40909 99.5909H22.2727C23.1818 103.591 25.0303 106.833 27.8182 109.318C30.6364 111.773 34.2727 113 38.7273 113C45.5455 113 50.8636 110.03 54.6818 104.091C58.5 98.1212 60.4242 89.7879 60.4545 79.0909H59.7273C58.1515 81.697 56.1818 83.9394 53.8182 85.8182C51.4849 87.697 48.8636 89.1515 45.9545 90.1818C43.0455 91.2121 39.9394 91.7273 36.6364 91.7273C31.2727 91.7273 26.3939 90.4091 22 87.7727C17.6061 85.1364 14.1061 81.5151 11.5 76.9091C8.89394 72.303 7.59091 67.0455 7.59091 61.1364C7.59091 55.2576 8.92424 49.9242 11.5909 45.1364C14.2879 40.3485 18.0455 36.5606 22.8636 33.7727C27.7121 30.9545 33.3939 29.5758 39.9091 29.6364ZM39.9545 41.4545C36.4091 41.4545 33.2121 42.3333 30.3636 44.0909C27.5455 45.8182 25.3182 48.1667 23.6818 51.1364C22.0455 54.0758 21.2273 57.3485 21.2273 60.9545C21.2273 64.5606 22.0152 67.8333 23.5909 70.7727C25.197 73.6818 27.3788 76 30.1364 77.7273C32.9242 79.4242 36.1061 80.2727 39.6818 80.2727C42.3485 80.2727 44.8333 79.7576 47.1364 78.7273C49.4394 77.697 51.4545 76.2727 53.1818 74.4545C54.9091 72.6061 56.2576 70.5151 57.2273 68.1818C58.197 65.8485 58.6818 63.3939 58.6818 60.8182C58.6818 57.3939 57.8636 54.2121 56.2273 51.2727C54.6212 48.3333 52.4091 45.9697 49.5909 44.1818C46.7727 42.3636 43.5606 41.4545 39.9545 41.4545Z" fill="#4338CA" />
	<path d="M111.682 125.273C105.985 125.273 100.864 124.182 96.3182 122C91.803 119.788 88.197 116.758 85.5 112.909C82.803 109.061 81.3636 104.667 81.1818 99.7273H94.8182C95.1515 103.727 96.9242 107.015 100.136 109.591C103.348 112.167 107.197 113.455 111.682 113.455C115.258 113.455 118.424 112.636 121.182 111C123.97 109.333 126.152 107.045 127.727 104.136C129.333 101.227 130.136 97.9091 130.136 94.1818C130.136 90.3939 129.318 87.0152 127.682 84.0455C126.045 81.0758 123.788 78.7424 120.909 77.0455C118.061 75.3485 114.788 74.4848 111.091 74.4545C108.273 74.4545 105.439 74.9394 102.591 75.9091C99.7424 76.8788 97.4394 78.1515 95.6818 79.7273L82.8182 77.8182L88.0455 30.9091H139.227V42.9545H99.7273L96.7727 69H97.3182C99.1364 67.2424 101.545 65.7727 104.545 64.5909C107.576 63.4091 110.818 62.8182 114.273 62.8182C119.939 62.8182 124.985 64.1667 129.409 66.8636C133.864 69.5606 137.364 73.2424 139.909 77.9091C142.485 82.5455 143.758 87.8788 143.727 93.9091C143.758 99.9394 142.394 105.318 139.636 110.045C136.909 114.773 133.121 118.5 128.273 121.227C123.455 123.924 117.924 125.273 111.682 125.273Z" fill="#4338CA" />
	<path d="M48.9893 142.715C47.1455 142.715 45.4697 142.237 43.9621 141.281C42.4545 140.326 41.2506 138.892 40.3503 136.981C39.4501 135.07 39 132.698 39 129.864C39 126.921 39.4664 124.5 40.3992 122.6C41.3319 120.7 42.5521 119.294 44.0597 118.381C45.5782 117.469 47.2106 117.013 48.9568 117.013C50.2692 117.013 51.3918 117.241 52.3245 117.697C52.3245 117.697 53.9385 118.347 54.253 119.107H54.7061V109.139L64.136 109V142.356H56.2617V138.301H56.0177C55.6814 139.072 55.2042 139.794 54.586 140.467C53.9677 141.14 53.1922 141.683 52.2595 142.096C51.3375 142.508 50.2475 142.715 48.9893 142.715ZM51.7551 136.509C52.7204 136.509 53.5447 136.238 54.228 135.695C54.9114 135.141 55.4374 134.365 55.8062 133.366C56.1749 132.367 56.3593 131.194 56.3593 129.848C56.3593 128.479 56.1749 127.301 55.8062 126.313C55.4482 125.325 54.9222 124.565 54.228 124.033C53.5447 123.501 55.9782 127.1 55.0129 127.1C54.0259 127.1 53.1908 127.372 52.5075 127.915C51.8242 128.457 51.3035 129.223 50.9456 130.211C50.5985 131.199 50.425 132.366 50.425 133.713C50.425 135.059 47.3461 132.367 47.7041 133.366C48.062 134.365 48.5772 135.141 49.2496 135.695C49.933 136.238 50.7681 136.509 51.7551 136.509Z" fill="white" />
	<path d="M79.7752 144.327C77.1505 144.327 74.8944 143.789 73.0072 142.714C71.1308 141.629 69.6828 140.119 68.6633 138.187C67.6546 136.243 67.1502 133.99 67.1502 131.427C67.1502 128.854 67.6546 126.601 68.6633 124.668C69.6828 122.725 71.1308 121.215 73.0072 120.14C74.8944 119.055 77.1505 118.512 79.7752 118.512C82.4 118.512 84.6506 119.055 86.527 120.14C88.4142 121.215 89.8622 122.725 90.8709 124.668C91.8904 126.601 92.4002 128.854 92.4002 131.427C92.4002 133.99 91.8904 136.243 90.8709 138.187C89.8622 140.119 88.4142 141.629 86.527 142.714C84.6506 143.789 82.4 144.327 79.7752 144.327ZM79.824 138.317C80.7785 138.317 81.5865 138.024 82.2482 137.437C82.9098 136.851 83.4141 136.037 83.7612 134.994C84.1191 133.952 84.2981 132.747 84.2981 131.379C84.2981 129.989 84.1191 128.773 83.7612 127.73C83.4141 126.688 82.9098 125.873 82.2482 125.287C81.5865 124.701 80.7785 124.408 79.824 124.408C78.837 124.408 78.0018 124.701 77.3185 125.287C76.6461 125.873 76.1309 126.688 75.7729 127.73C75.4259 128.773 75.2523 129.989 75.2523 131.379C75.2523 132.747 75.4259 133.952 75.7729 134.994C76.1309 136.037 76.6461 136.851 77.3185 137.437C78.0018 138.024 78.837 138.317 79.824 138.317Z" fill="white" />
	<path d="M103.544 118.045V124.845H87.7795V118.045H103.544ZM91.0822 112.052H99.5591V135.115C99.5591 135.603 99.1138 136.081 99.2656 136.385C99.4283 136.678 99.6615 136.89 99.9652 137.02C100.269 137.14 100.632 137.199 101.055 137.199C101.359 137.199 101.679 137.172 102.015 137.118C102.362 137.053 102.623 136.998 102.796 136.955L104 142.704C103.62 142.813 103.083 142.949 102.389 143.111C101.706 143.274 100.887 143.378 99.9327 143.421C98.0671 143.508 96.4673 143.291 95.1332 142.769C93.81 142.237 92.7959 141.412 92.0909 140.294C91.3967 139.175 91.0605 137.769 91.0822 136.075V112.052Z" fill="white" />
	<path d="M49.5852 140.4C48.0292 140.4 46.6151 139.998 45.3429 139.192C44.0707 138.387 43.0547 137.179 42.295 135.568C41.5354 133.957 41.1555 131.957 41.1555 129.568C41.1555 127.088 41.5491 125.047 42.3362 123.445C43.1234 121.843 44.153 120.658 45.4253 119.889C46.7067 119.12 48.0841 118.736 49.5577 118.736C50.6652 118.736 51.6125 118.928 52.3997 119.313C53.1868 119.688 53.8366 120.173 54.3492 120.768C54.8617 121.363 55.2507 121.981 55.5162 122.621H55.6535V111.981H62.367V140.098H55.7221V136.68H55.5162C55.2324 137.33 54.8297 137.938 54.308 138.506C53.7863 139.073 53.1319 139.531 52.3447 139.879C51.5668 140.227 50.6469 140.4 49.5852 140.4ZM51.9191 135.17C52.7337 135.17 53.4293 134.941 54.006 134.483C54.5826 134.016 55.0265 133.362 55.3377 132.52C55.6489 131.678 55.8045 130.689 55.8045 129.554C55.8045 128.401 55.6489 127.408 55.3377 126.575C55.0357 125.742 54.5917 125.102 54.006 124.653C53.4293 124.205 52.7337 123.98 51.9191 123.98C51.0862 123.98 50.3815 124.209 49.8049 124.667C49.2282 125.125 48.7889 125.77 48.4869 126.603C48.194 127.436 48.0475 128.42 48.0475 129.554C48.0475 130.689 48.1986 131.678 48.5006 132.52C48.8026 133.362 49.2374 134.016 49.8049 134.483C50.3815 134.941 51.0862 135.17 51.9191 135.17Z" fill="black" />
	<path d="M76.4565 140.497C74.2415 140.497 72.3378 140.044 70.7452 139.137C69.1618 138.222 67.9399 136.95 67.0795 135.321C66.2283 133.682 65.8027 131.783 65.8027 129.623C65.8027 127.454 66.2283 125.555 67.0795 123.926C67.9399 122.287 69.1618 121.015 70.7452 120.109C72.3378 119.194 74.2415 118.736 76.4565 118.736C78.6715 118.736 80.5707 119.194 82.1541 120.109C83.7467 121.015 84.9685 122.287 85.8198 123.926C86.6801 125.555 87.1103 127.454 87.1103 129.623C87.1103 131.783 86.6801 133.682 85.8198 135.321C84.9685 136.95 83.7467 138.222 82.1541 139.137C80.5707 140.044 78.6715 140.497 76.4565 140.497ZM76.4977 135.431C77.3031 135.431 77.985 135.183 78.5433 134.689C79.1016 134.195 79.5272 133.508 79.8201 132.63C80.1222 131.751 80.2732 130.735 80.2732 129.582C80.2732 128.41 80.1222 127.385 79.8201 126.507C79.5272 125.628 79.1016 124.941 78.5433 124.447C77.985 123.953 77.3031 123.706 76.4977 123.706C75.6648 123.706 74.96 123.953 74.3834 124.447C73.8159 124.941 73.3812 125.628 73.0791 126.507C72.7862 127.385 72.6398 128.41 72.6398 129.582C72.6398 130.735 72.7862 131.751 73.0791 132.63C73.3812 133.508 73.8159 134.195 74.3834 134.689C74.96 135.183 75.6648 135.431 76.4977 135.431Z" fill="black" />
	<path d="M102.453 119.011V123.953H89.1491V119.011H102.453ZM91.9361 113.958H98.6496V133.467C98.6496 133.879 98.7137 134.213 98.8418 134.469C98.9791 134.717 99.1759 134.895 99.4322 135.005C99.6884 135.106 99.9951 135.156 100.352 135.156C100.608 135.156 100.878 135.133 101.162 135.087C101.455 135.032 101.675 134.987 101.821 134.95L102.837 139.796C102.517 139.888 102.064 140.002 101.478 140.14C100.901 140.277 100.21 140.364 99.4047 140.4C97.8304 140.474 96.4804 140.291 95.3546 139.851C94.238 139.403 93.3822 138.707 92.7873 137.764C92.2015 136.822 91.9178 135.636 91.9361 134.209V113.958Z" fill="black" />
</svg>
